<svg xmlns="http://www.w3.org/2000/svg" viewBox="0 0 44 62" width="44" height="62" role="img" aria-label="2 of hearts">
  <rect width="44" height="62" fill="#1c5c43"/>
  <rect x="2.5" y="2.5" width="39" height="57" rx="4" fill="#fbf9f4" stroke="#d8d2c4"/>
  <text x="11" y="18" font-family="'Helvetica Neue',Helvetica,Arial,'Liberation Sans',sans-serif" font-size="14" font-weight="700" fill="#b3261e" text-anchor="middle" textLength="9" lengthAdjust="spacingAndGlyphs">2</text>
  <g transform="translate(6.50 21.50) scale(0.3750)"><path d="M12 21.6S3 14.8 3 9.2A4.9 4.9 0 0 1 12 6.4 4.9 4.9 0 0 1 21 9.2c0 5.6-9 12.4-9 12.4Z" fill="#b3261e"/></g>
  <g transform="translate(13.50 29.50) scale(1.0417)"><path d="M12 21.6S3 14.8 3 9.2A4.9 4.9 0 0 1 12 6.4 4.9 4.9 0 0 1 21 9.2c0 5.6-9 12.4-9 12.4Z" fill="#b3261e"/></g>
</svg>
